<svg width="18" height="18" viewBox="0 0 18 18" fill="none" xmlns="http://www.w3.org/2000/svg">
<g clip-path="url(#clip0_2_268)">
<path d="M9 -6.10352e-05C4.02948 -6.10352e-05 0 4.02942 0 8.99994C0 13.2206 2.90592 16.7623 6.82596 17.735V11.7503H4.97016V8.99994H6.82596V7.81482C6.82596 4.75158 8.21232 3.33174 11.2198 3.33174C11.79 3.33174 12.7739 3.4437 13.1764 3.5553V6.0483C12.964 6.02598 12.595 6.01482 12.1367 6.01482C10.661 6.01482 10.0908 6.5739 10.0908 8.02722V8.99994H13.0306L12.5255 11.7503H10.0908V17.9341C14.5472 17.3959 18.0004 13.6015 18.0004 8.99994C18 4.02942 13.9705 -6.10352e-05 9 -6.10352e-05Z" fill="white"/>
</g>
<defs>
<clipPath id="clip0_2_268">
<rect width="18" height="18" fill="white"/>
</clipPath>
</defs>
</svg>
