<svg width="205" height="189" viewBox="0 0 205 189" fill="none" xmlns="http://www.w3.org/2000/svg">
<path opacity="0.5" d="M6.44866 3.22433C6.44866 4.99952 4.99952 6.44866 3.22433 6.44866C1.44914 6.44866 0 4.99952 0 3.22433C0 1.44914 1.44914 0 3.22433 0C4.99952 0 6.44866 1.44914 6.44866 3.22433Z" fill="#3A8DEC"/>
<path opacity="0.5" d="M31.5484 6.44866C33.3292 6.44866 34.7728 5.00508 34.7728 3.22433C34.7728 1.44358 33.3292 0 31.5484 0C29.7677 0 28.3241 1.44358 28.3241 3.22433C28.3241 5.00508 29.7677 6.44866 31.5484 6.44866Z" fill="#3A8DEC"/>
<path opacity="0.5" d="M59.8726 6.44866C61.6534 6.44866 63.097 5.00508 63.097 3.22433C63.097 1.44358 61.6534 0 59.8726 0C58.0919 0 56.6483 1.44358 56.6483 3.22433C56.6483 5.00508 58.0919 6.44866 59.8726 6.44866Z" fill="#3A8DEC"/>
<path opacity="0.5" d="M91.4207 3.22433C91.4207 4.99952 89.9716 6.44866 88.1964 6.44866C86.4212 6.44866 84.972 4.99952 84.972 3.22433C84.972 1.44914 86.4212 0 88.1964 0C89.9716 0 91.4207 1.44914 91.4207 3.22433Z" fill="#3A8DEC"/>
<path opacity="0.5" d="M116.52 6.44866C118.301 6.44866 119.745 5.00508 119.745 3.22433C119.745 1.44358 118.301 0 116.52 0C114.74 0 113.296 1.44358 113.296 3.22433C113.296 5.00508 114.74 6.44866 116.52 6.44866Z" fill="#3A8DEC"/>
<path opacity="0.5" d="M144.845 6.44866C146.625 6.44866 148.069 5.00508 148.069 3.22433C148.069 1.44358 146.625 0 144.845 0C143.064 0 141.62 1.44358 141.62 3.22433C141.62 5.00508 143.064 6.44866 144.845 6.44866Z" fill="#3A8DEC"/>
<path opacity="0.5" d="M173.169 6.44866C174.95 6.44866 176.393 5.00508 176.393 3.22433C176.393 1.44358 174.95 0 173.169 0C171.388 0 169.944 1.44358 169.944 3.22433C169.944 5.00508 171.388 6.44866 173.169 6.44866Z" fill="#3A8DEC"/>
<path opacity="0.5" d="M201.493 6.44866C203.274 6.44866 204.717 5.00508 204.717 3.22433C204.717 1.44358 203.274 0 201.493 0C199.712 0 198.269 1.44358 198.269 3.22433C198.269 5.00508 199.712 6.44866 201.493 6.44866Z" fill="#3A8DEC"/>
<path opacity="0.5" d="M6.44866 39.6729C6.44866 41.4481 4.99952 42.8973 3.22433 42.8973C1.44914 42.8973 0 41.4481 0 39.6729C0 37.8977 1.44914 36.4486 3.22433 36.4486C4.99952 36.4667 6.44866 37.8977 6.44866 39.6729Z" fill="#3A8DEC"/>
<path opacity="0.5" d="M31.5484 42.8973C33.3292 42.8973 34.7728 41.4537 34.7728 39.6729C34.7728 37.8922 33.3292 36.4486 31.5484 36.4486C29.7677 36.4486 28.3241 37.8922 28.3241 39.6729C28.3241 41.4537 29.7677 42.8973 31.5484 42.8973Z" fill="#3A8DEC"/>
<path opacity="0.5" d="M59.8726 42.8973C61.6534 42.8973 63.097 41.4537 63.097 39.6729C63.097 37.8922 61.6534 36.4486 59.8726 36.4486C58.0919 36.4486 56.6483 37.8922 56.6483 39.6729C56.6483 41.4537 58.0919 42.8973 59.8726 42.8973Z" fill="#3A8DEC"/>
<path opacity="0.5" d="M91.4207 39.6729C91.4207 41.4481 89.9716 42.8973 88.1964 42.8973C86.4212 42.8973 84.972 41.4481 84.972 39.6729C84.972 37.8977 86.4212 36.4486 88.1964 36.4486C89.9716 36.4667 91.4207 37.8977 91.4207 39.6729Z" fill="#3A8DEC"/>
<path opacity="0.5" d="M116.52 42.8973C118.301 42.8973 119.745 41.4537 119.745 39.6729C119.745 37.8922 118.301 36.4486 116.52 36.4486C114.74 36.4486 113.296 37.8922 113.296 39.6729C113.296 41.4537 114.74 42.8973 116.52 42.8973Z" fill="#3A8DEC"/>
<path opacity="0.5" d="M144.845 42.8973C146.625 42.8973 148.069 41.4537 148.069 39.6729C148.069 37.8922 146.625 36.4486 144.845 36.4486C143.064 36.4486 141.62 37.8922 141.62 39.6729C141.62 41.4537 143.064 42.8973 144.845 42.8973Z" fill="#3A8DEC"/>
<path opacity="0.5" d="M173.169 42.8973C174.95 42.8973 176.393 41.4537 176.393 39.6729C176.393 37.8922 174.95 36.4486 173.169 36.4486C171.388 36.4486 169.944 37.8922 169.944 39.6729C169.944 41.4537 171.388 42.8973 173.169 42.8973Z" fill="#3A8DEC"/>
<path opacity="0.5" d="M201.493 42.8973C203.274 42.8973 204.717 41.4537 204.717 39.6729C204.717 37.8922 203.274 36.4486 201.493 36.4486C199.712 36.4486 198.269 37.8922 198.269 39.6729C198.269 41.4537 199.712 42.8973 201.493 42.8973Z" fill="#3A8DEC"/>
<path opacity="0.5" d="M6.44866 76.1215C6.44866 77.8967 4.99952 79.3459 3.22433 79.3459C1.44914 79.3459 0 77.8967 0 76.1215C0 74.3464 1.44914 72.8972 3.22433 72.8972C4.99952 72.8972 6.44866 74.3464 6.44866 76.1215Z" fill="#3A8DEC"/>
<path opacity="0.5" d="M31.5484 79.3459C33.3292 79.3459 34.7728 77.9023 34.7728 76.1215C34.7728 74.3408 33.3292 72.8972 31.5484 72.8972C29.7677 72.8972 28.3241 74.3408 28.3241 76.1215C28.3241 77.9023 29.7677 79.3459 31.5484 79.3459Z" fill="#3A8DEC"/>
<path opacity="0.5" d="M59.8726 79.3459C61.6534 79.3459 63.097 77.9023 63.097 76.1215C63.097 74.3408 61.6534 72.8972 59.8726 72.8972C58.0919 72.8972 56.6483 74.3408 56.6483 76.1215C56.6483 77.9023 58.0919 79.3459 59.8726 79.3459Z" fill="#3A8DEC"/>
<path opacity="0.5" d="M91.4207 76.1215C91.4207 77.8967 89.9716 79.3459 88.1964 79.3459C86.4212 79.3459 84.972 77.8967 84.972 76.1215C84.972 74.3464 86.4212 72.8972 88.1964 72.8972C89.9716 72.8972 91.4207 74.3464 91.4207 76.1215Z" fill="#3A8DEC"/>
<path opacity="0.5" d="M116.52 79.3459C118.301 79.3459 119.745 77.9023 119.745 76.1215C119.745 74.3408 118.301 72.8972 116.52 72.8972C114.74 72.8972 113.296 74.3408 113.296 76.1215C113.296 77.9023 114.74 79.3459 116.52 79.3459Z" fill="#3A8DEC"/>
<path opacity="0.5" d="M144.845 79.3459C146.625 79.3459 148.069 77.9023 148.069 76.1215C148.069 74.3408 146.625 72.8972 144.845 72.8972C143.064 72.8972 141.62 74.3408 141.62 76.1215C141.62 77.9023 143.064 79.3459 144.845 79.3459Z" fill="#3A8DEC"/>
<path opacity="0.5" d="M173.169 79.3459C174.95 79.3459 176.393 77.9023 176.393 76.1215C176.393 74.3408 174.95 72.8972 173.169 72.8972C171.388 72.8972 169.944 74.3408 169.944 76.1215C169.944 77.9023 171.388 79.3459 173.169 79.3459Z" fill="#3A8DEC"/>
<path opacity="0.5" d="M201.493 79.3459C203.274 79.3459 204.717 77.9023 204.717 76.1215C204.717 74.3408 203.274 72.8972 201.493 72.8972C199.712 72.8972 198.269 74.3408 198.269 76.1215C198.269 77.9023 199.712 79.3459 201.493 79.3459Z" fill="#3A8DEC"/>
<path opacity="0.5" d="M6.44866 112.57C6.44866 114.345 4.99952 115.794 3.22433 115.794C1.44914 115.794 0 114.345 0 112.57C0 110.795 1.44914 109.346 3.22433 109.346C4.99952 109.364 6.44866 110.795 6.44866 112.57Z" fill="#3A8DEC"/>
<path opacity="0.5" d="M31.5484 115.794C33.3292 115.794 34.7728 114.351 34.7728 112.57C34.7728 110.789 33.3292 109.346 31.5484 109.346C29.7677 109.346 28.3241 110.789 28.3241 112.57C28.3241 114.351 29.7677 115.794 31.5484 115.794Z" fill="#3A8DEC"/>
<path opacity="0.5" d="M59.8726 115.794C61.6534 115.794 63.097 114.351 63.097 112.57C63.097 110.789 61.6534 109.346 59.8726 109.346C58.0919 109.346 56.6483 110.789 56.6483 112.57C56.6483 114.351 58.0919 115.794 59.8726 115.794Z" fill="#3A8DEC"/>
<path opacity="0.5" d="M91.4207 112.57C91.4207 114.345 89.9716 115.794 88.1964 115.794C86.4212 115.794 84.972 114.345 84.972 112.57C84.972 110.795 86.4212 109.346 88.1964 109.346C89.9716 109.364 91.4207 110.795 91.4207 112.57Z" fill="#3A8DEC"/>
<path opacity="0.5" d="M116.52 115.794C118.301 115.794 119.745 114.351 119.745 112.57C119.745 110.789 118.301 109.346 116.52 109.346C114.74 109.346 113.296 110.789 113.296 112.57C113.296 114.351 114.74 115.794 116.52 115.794Z" fill="#3A8DEC"/>
<path opacity="0.5" d="M144.845 115.794C146.625 115.794 148.069 114.351 148.069 112.57C148.069 110.789 146.625 109.346 144.845 109.346C143.064 109.346 141.62 110.789 141.62 112.57C141.62 114.351 143.064 115.794 144.845 115.794Z" fill="#3A8DEC"/>
<path opacity="0.5" d="M173.169 115.794C174.95 115.794 176.393 114.351 176.393 112.57C176.393 110.789 174.95 109.346 173.169 109.346C171.388 109.346 169.944 110.789 169.944 112.57C169.944 114.351 171.388 115.794 173.169 115.794Z" fill="#3A8DEC"/>
<path opacity="0.5" d="M201.493 115.794C203.274 115.794 204.717 114.351 204.717 112.57C204.717 110.789 203.274 109.346 201.493 109.346C199.712 109.346 198.269 110.789 198.269 112.57C198.269 114.351 199.712 115.794 201.493 115.794Z" fill="#3A8DEC"/>
<path opacity="0.5" d="M6.44866 149.019C6.44866 150.794 4.99952 152.243 3.22433 152.243C1.44914 152.243 0 150.794 0 149.019C0 147.244 1.44914 145.794 3.22433 145.794C4.99952 145.794 6.44866 147.244 6.44866 149.019Z" fill="#3A8DEC"/>
<path opacity="0.5" d="M31.5484 152.243C33.3292 152.243 34.7728 150.8 34.7728 149.019C34.7728 147.238 33.3292 145.794 31.5484 145.794C29.7677 145.794 28.3241 147.238 28.3241 149.019C28.3241 150.8 29.7677 152.243 31.5484 152.243Z" fill="#3A8DEC"/>
<path opacity="0.5" d="M59.8726 152.243C61.6534 152.243 63.097 150.8 63.097 149.019C63.097 147.238 61.6534 145.794 59.8726 145.794C58.0919 145.794 56.6483 147.238 56.6483 149.019C56.6483 150.8 58.0919 152.243 59.8726 152.243Z" fill="#3A8DEC"/>
<path opacity="0.5" d="M91.4207 149.019C91.4207 150.794 89.9716 152.243 88.1964 152.243C86.4212 152.243 84.972 150.794 84.972 149.019C84.972 147.244 86.4212 145.794 88.1964 145.794C89.9716 145.794 91.4207 147.244 91.4207 149.019Z" fill="#3A8DEC"/>
<path opacity="0.5" d="M116.52 152.243C118.301 152.243 119.745 150.8 119.745 149.019C119.745 147.238 118.301 145.794 116.52 145.794C114.74 145.794 113.296 147.238 113.296 149.019C113.296 150.8 114.74 152.243 116.52 152.243Z" fill="#3A8DEC"/>
<path opacity="0.5" d="M144.845 152.243C146.625 152.243 148.069 150.8 148.069 149.019C148.069 147.238 146.625 145.794 144.845 145.794C143.064 145.794 141.62 147.238 141.62 149.019C141.62 150.8 143.064 152.243 144.845 152.243Z" fill="#3A8DEC"/>
<path opacity="0.5" d="M173.169 152.243C174.95 152.243 176.393 150.8 176.393 149.019C176.393 147.238 174.95 145.794 173.169 145.794C171.388 145.794 169.944 147.238 169.944 149.019C169.944 150.8 171.388 152.243 173.169 152.243Z" fill="#3A8DEC"/>
<path opacity="0.5" d="M201.493 152.243C203.274 152.243 204.717 150.8 204.717 149.019C204.717 147.238 203.274 145.794 201.493 145.794C199.712 145.794 198.269 147.238 198.269 149.019C198.269 150.8 199.712 152.243 201.493 152.243Z" fill="#3A8DEC"/>
<path opacity="0.5" d="M6.44866 185.467C6.44866 187.243 4.99952 188.692 3.22433 188.692C1.44914 188.692 0 187.243 0 185.467C0 183.692 1.44914 182.243 3.22433 182.243C4.99952 182.243 6.44866 183.674 6.44866 185.467Z" fill="#3A8DEC"/>
<path opacity="0.5" d="M31.5484 188.692C33.3292 188.692 34.7728 187.248 34.7728 185.467C34.7728 183.687 33.3292 182.243 31.5484 182.243C29.7677 182.243 28.3241 183.687 28.3241 185.467C28.3241 187.248 29.7677 188.692 31.5484 188.692Z" fill="#3A8DEC"/>
<path opacity="0.5" d="M59.8726 188.692C61.6534 188.692 63.097 187.248 63.097 185.467C63.097 183.687 61.6534 182.243 59.8726 182.243C58.0919 182.243 56.6483 183.687 56.6483 185.467C56.6483 187.248 58.0919 188.692 59.8726 188.692Z" fill="#3A8DEC"/>
<path opacity="0.5" d="M91.4207 185.467C91.4207 187.243 89.9716 188.692 88.1964 188.692C86.4212 188.692 84.972 187.243 84.972 185.467C84.972 183.692 86.4212 182.243 88.1964 182.243C89.9716 182.243 91.4207 183.674 91.4207 185.467Z" fill="#3A8DEC"/>
<path opacity="0.5" d="M116.52 188.692C118.301 188.692 119.745 187.248 119.745 185.467C119.745 183.687 118.301 182.243 116.52 182.243C114.74 182.243 113.296 183.687 113.296 185.467C113.296 187.248 114.74 188.692 116.52 188.692Z" fill="#3A8DEC"/>
<path opacity="0.5" d="M144.845 188.692C146.625 188.692 148.069 187.248 148.069 185.467C148.069 183.687 146.625 182.243 144.845 182.243C143.064 182.243 141.62 183.687 141.62 185.467C141.62 187.248 143.064 188.692 144.845 188.692Z" fill="#3A8DEC"/>
<path opacity="0.5" d="M173.169 188.692C174.95 188.692 176.393 187.248 176.393 185.467C176.393 183.687 174.95 182.243 173.169 182.243C171.388 182.243 169.944 183.687 169.944 185.467C169.944 187.248 171.388 188.692 173.169 188.692Z" fill="#3A8DEC"/>
<path opacity="0.5" d="M201.493 188.692C203.274 188.692 204.717 187.248 204.717 185.467C204.717 183.687 203.274 182.243 201.493 182.243C199.712 182.243 198.269 183.687 198.269 185.467C198.269 187.248 199.712 188.692 201.493 188.692Z" fill="#3A8DEC"/>
</svg>
